<svg viewBox="0 0 256 256" fill="none" xmlns="http://www.w3.org/2000/svg">
<path d="M27.9104 189.963C27.9104 196.351 31.1085 201.287 37.5046 204.772C44.0946 208.45 53.1073 210.289 64.5429 210.289C76.1722 210.289 85.4757 207.966 92.4533 203.32C99.6247 198.868 103.21 193.544 103.21 187.35C103.21 181.736 100.981 177.961 96.5235 176.025C92.2595 174.089 86.0571 173.121 77.9166 173.121H58.4374C50.6846 173.121 44.1915 172.444 38.9583 171.089C31.593 176.703 27.9104 182.994 27.9104 189.963ZM0 194.899C0 188.898 1.7444 183.284 5.2332 178.058C8.72201 173.025 13.7614 168.476 20.3513 164.41V163.249C16.6687 160.926 13.5676 157.829 11.0479 153.957C8.72201 150.085 7.55907 145.246 7.55907 139.439C7.55907 133.825 9.10965 128.792 12.2108 124.339C15.5058 119.693 19.1884 115.919 23.2587 113.015V111.853C18.4131 108.175 14.0521 103.142 10.1757 96.7541C6.49305 90.1724 4.65174 82.6227 4.65174 74.1052C4.65174 65.9748 6.20232 58.7156 9.30347 52.3274C12.4046 45.9393 16.4749 40.6158 21.5143 36.357C26.7475 31.9047 32.756 28.6138 39.5398 26.4844C46.3235 24.1615 53.495 23 61.054 23C64.9305 23 68.6131 23.3872 72.1019 24.1615C75.7846 24.7422 79.0795 25.5165 81.9869 26.4844H122.182C122.182 26.4844 132.655 26.607 132.655 38.7091C132.655 50.8112 122.182 50.9273 122.182 50.9273L106.99 51.1659C109.316 53.876 111.254 57.3605 112.805 61.6193C114.355 65.6844 115.13 70.2336 115.13 75.2667C115.13 83.2035 113.677 90.1724 110.769 96.1733C108.056 102.174 104.276 107.207 99.4309 111.273C94.5853 115.338 88.8676 118.435 82.2776 120.564C75.6876 122.694 68.6131 123.759 61.054 123.759C57.9529 123.759 54.7548 123.468 51.4598 122.887C48.1649 122.307 44.8699 121.339 41.5749 119.984C39.4429 121.92 37.6985 123.855 36.3417 125.791C35.1788 127.727 34.5973 130.34 34.5973 133.631C34.5973 137.696 36.2448 140.89 39.5398 143.213C43.0286 145.536 49.134 146.698 57.856 146.698H83.1498C100.4 146.698 113.386 149.505 122.108 155.119C131.024 160.539 135.482 169.443 135.482 181.833C135.482 188.801 133.641 195.383 129.958 201.578C126.469 207.772 121.43 213.096 114.84 217.548C108.25 222 100.206 225.485 90.7089 228.001C81.4054 230.712 70.939 232.067 59.3096 232.067C50.7815 232.067 42.8347 231.292 35.4695 229.744C28.2981 228.195 22.0958 225.872 16.8625 222.775C11.6293 219.678 7.46216 215.806 4.361 211.16C1.45367 206.514 0 201.094 0 194.899ZM61.054 102.852C67.8378 102.852 73.6525 100.432 78.4981 95.5926C83.3436 90.5595 85.7664 83.397 85.7664 74.1052C85.7664 65.2005 83.3436 58.3284 78.4981 53.4889C73.8463 48.4558 68.0317 45.9393 61.054 45.9393C54.0764 45.9393 48.1649 48.359 43.3193 53.1985C38.4737 58.038 36.051 65.0069 36.051 74.1052C36.051 83.397 38.4737 90.5595 43.3193 95.5926C48.1649 100.432 54.0764 102.852 61.054 102.852Z" fill="black"/>
<path d="M171.106 138.2C173.382 139.364 174.788 140.31 180.991 143.213C187.387 145.923 194.268 147.279 201.633 147.279C209.386 147.279 215.103 145.73 218.786 142.633C222.469 139.342 224.31 135.18 224.31 130.147C224.31 127.243 223.438 124.726 221.693 122.597C219.949 120.274 217.623 118.241 214.716 116.499C211.808 114.757 208.513 113.208 204.831 111.853C201.148 110.305 197.466 108.756 193.783 107.207C189.131 105.465 184.383 103.433 179.537 101.11C174.691 98.7867 170.33 95.9798 166.454 92.6889C162.771 89.398 159.67 85.6232 157.151 81.3644C154.825 76.9121 153.662 71.6854 153.662 65.6844C153.662 53.1017 158.313 42.842 167.617 34.9052C176.92 26.9684 189.616 23 205.703 23C215.588 23 224.504 24.7422 232.451 28.2267C240.397 31.7111 238.549 30.184 244.364 34.6364C244.364 34.6364 251.067 41.5169 245.388 50.2948C239.709 59.0727 229.818 55.5818 229.818 55.5818C226.327 53.8364 227.508 53.8761 222.275 51.7467C217.236 49.4237 211.905 48.2622 206.285 48.2622C199.113 48.2622 193.783 49.8109 190.294 52.9081C186.999 55.8119 185.352 59.4899 185.352 63.9422C185.352 66.8459 186.127 69.3625 187.678 71.4918C189.422 73.4277 191.651 75.1699 194.364 76.7185C197.078 78.2672 200.179 79.719 203.668 81.0741C207.351 82.4292 211.13 83.7842 215.007 85.1393C219.852 86.8815 224.698 88.9141 229.543 91.2371C234.389 93.3664 238.75 96.0766 242.626 99.3674C246.697 102.658 249.895 106.723 252.22 111.563C254.74 116.209 256 121.823 256 128.404C256 134.599 254.74 140.406 252.22 145.827C249.895 151.053 246.406 155.699 241.754 159.764C237.102 163.636 231.288 166.733 224.31 169.056C217.332 171.379 209.386 172.541 200.47 172.541C190.585 172.541 180.797 170.702 171.106 167.024C161.608 163.152 158.836 161.473 155.345 158.564C155.345 158.564 148.884 150.639 154.182 142.273C159.48 133.906 171.106 138.2 171.106 138.2Z" fill="black"/>
<path d="M200.159 208.837C183.736 208.837 167.564 199.291 167.564 199.291C167.564 199.291 157.647 196.382 152.436 204.772C147.225 213.162 155.345 220.236 155.345 220.236C155.345 220.236 167.312 232.067 200.159 232.067C233.007 232.067 244.945 220.236 244.945 220.236C244.945 220.236 254.254 213.836 249.978 204.772C245.701 195.707 235.054 199.291 235.054 199.291C235.054 199.291 216.583 208.837 200.159 208.837Z" fill="#FF7A00"/>
</svg>
